<svg width="24" height="24" viewBox="0 0 24 24" fill="none" xmlns="http://www.w3.org/2000/svg">
<rect width="24" height="24" rx="4" fill="white"/>
<path d="M5.05492 16C4.50398 16 4.00587 15.8981 3.56058 15.6943C3.1153 15.4868 2.76247 15.1868 2.50209 14.7943C2.24549 14.4019 2.11719 13.9208 2.11719 13.3509C2.11719 12.8604 2.21153 12.4566 2.40021 12.1396C2.58889 11.8226 2.8436 11.5717 3.16436 11.3868C3.48511 11.2019 3.8436 11.0623 4.23983 10.9679C4.63606 10.8736 5.03983 10.8019 5.45115 10.7528C5.9719 10.6925 6.39455 10.6434 6.71907 10.6057C7.0436 10.5642 7.27945 10.4981 7.42662 10.4075C7.57379 10.317 7.64738 10.1698 7.64738 9.96604V9.92641C7.64738 9.43208 7.50775 9.04906 7.22851 8.77736C6.95304 8.50566 6.54172 8.36981 5.99455 8.36981C5.42473 8.36981 4.97568 8.49623 4.64738 8.74906C4.32285 8.99811 4.09832 9.27547 3.97379 9.58113L2.38323 9.21887C2.5719 8.69057 2.84738 8.26415 3.20964 7.93962C3.57568 7.61132 3.99643 7.37358 4.4719 7.22641C4.94738 7.07547 5.44738 7 5.9719 7C6.31907 7 6.687 7.04151 7.07568 7.12453C7.46813 7.20377 7.83417 7.35094 8.17379 7.56604C8.51719 7.78113 8.79832 8.08868 9.01719 8.48868C9.23606 8.88491 9.34549 9.4 9.34549 10.034V15.8075H7.69266V14.6189H7.62474C7.5153 14.8377 7.35115 15.0528 7.13228 15.2642C6.91341 15.4755 6.63228 15.6509 6.28889 15.7906C5.94549 15.9302 5.53417 16 5.05492 16ZM5.42285 14.6415C5.89077 14.6415 6.29077 14.5491 6.62285 14.3642C6.9587 14.1792 7.21341 13.9377 7.387 13.6396C7.56436 13.3377 7.65304 13.0151 7.65304 12.6717V11.5509C7.59266 11.6113 7.47568 11.6679 7.30209 11.7208C7.13228 11.7698 6.93794 11.8132 6.71907 11.8509C6.50021 11.8849 6.287 11.917 6.07945 11.9472C5.8719 11.9736 5.69832 11.9962 5.5587 12.0151C5.2304 12.0566 4.9304 12.1264 4.6587 12.2245C4.39077 12.3226 4.17568 12.4642 4.01341 12.6491C3.85492 12.8302 3.77568 13.0717 3.77568 13.3736C3.77568 13.7925 3.9304 14.1094 4.23983 14.3245C4.54926 14.5358 4.9436 14.6415 5.42285 14.6415Z" fill="#201914"/>
<path d="M15.0281 15.983C14.1715 15.983 13.4338 15.8 12.8149 15.434C12.1998 15.0642 11.7243 14.5453 11.3885 13.8774C11.0564 13.2057 10.8904 12.4189 10.8904 11.517C10.8904 10.6264 11.0564 9.84151 11.3885 9.16226C11.7243 8.48302 12.1923 7.95283 12.7923 7.5717C13.396 7.19057 14.1017 7 14.9092 7C15.3998 7 15.8753 7.08113 16.3357 7.2434C16.796 7.40566 17.2092 7.66038 17.5753 8.00755C17.9413 8.35472 18.23 8.80566 18.4413 9.36038C18.6526 9.91132 18.7583 10.5811 18.7583 11.3698V11.9698H11.847V10.7019H17.0998C17.0998 10.2566 17.0092 9.86226 16.8281 9.51887C16.647 9.1717 16.3923 8.89811 16.064 8.69811C15.7394 8.49811 15.3583 8.39811 14.9206 8.39811C14.4451 8.39811 14.03 8.51509 13.6753 8.74906C13.3243 8.97925 13.0526 9.28113 12.8602 9.65472C12.6715 10.0245 12.5772 10.4264 12.5772 10.8604V11.8509C12.5772 12.4321 12.6791 12.9264 12.8828 13.334C13.0904 13.7415 13.3791 14.0528 13.7489 14.2679C14.1187 14.4792 14.5508 14.5849 15.0451 14.5849C15.3658 14.5849 15.6583 14.5396 15.9225 14.4491C16.1866 14.3547 16.4149 14.2151 16.6074 14.0302C16.7998 13.8453 16.947 13.617 17.0489 13.3453L18.6508 13.634C18.5225 14.1057 18.2923 14.5189 17.9602 14.8736C17.6319 15.2245 17.2187 15.4981 16.7206 15.6943C16.2262 15.8868 15.6621 15.983 15.0281 15.983Z" fill="#201914"/>
<path d="M21.4324 15.9151C21.123 15.9151 20.857 15.8057 20.6343 15.5868C20.4117 15.3642 20.3004 15.0962 20.3004 14.783C20.3004 14.4736 20.4117 14.2094 20.6343 13.9906C20.857 13.7679 21.123 13.6566 21.4324 13.6566C21.7419 13.6566 22.0079 13.7679 22.2305 13.9906C22.4532 14.2094 22.5645 14.4736 22.5645 14.783C22.5645 14.9906 22.5117 15.1811 22.406 15.3547C22.3041 15.5245 22.1683 15.6604 21.9985 15.7623C21.8287 15.8642 21.64 15.9151 21.4324 15.9151Z" fill="#201914"/>
</svg>
